<?xml version="1.0" encoding="utf-8"?>
<!-- Generator: Adobe Illustrator 24.0.1, SVG Export Plug-In . SVG Version: 6.00 Build 0)  -->
<svg version="1.2" baseProfile="tiny" id="Layer_1" xmlns="http://www.w3.org/2000/svg" xmlns:xlink="http://www.w3.org/1999/xlink"
	 x="0px" y="0px" viewBox="0 0 40 9" xml:space="preserve">
<g>
	<path fill="#FFFFFF" d="M39.87,8.31h-2.64c-1.7-0.57-4.02-1.55-6.04-3.14C22.58-0.86,13.22,1.96,9.36,5.16
		C7.33,6.83,5.55,7.78,4.03,8.31H0c2.33,0,5.2-0.62,8.91-3.68c3.71-3.07,13.54-6.43,22.72,0C35.24,7.47,39.87,8.31,39.87,8.31z"/>
	<path fill="#FFFFFF" d="M40,7.63l-0.25,1.36c-0.08-0.03-1.1-0.21-2.51-0.68c-1.7-0.57-4.02-1.55-6.04-3.14
		C22.58-0.86,13.22,1.96,9.36,5.16C7.33,6.83,5.55,7.78,4.03,8.31C2.39,8.89,1.04,9,0,9V7.62c1.95,0,4.68-0.4,8.46-3.53
		c4.19-3.46,14.29-6.53,23.58-0.03C35.49,6.79,39.96,7.62,40,7.63z"/>
</g>
</svg>
