<svg xmlns="http://www.w3.org/2000/svg" version="1.1" xmlns:xlink="http://www.w3.org/1999/xlink" width="512" height="512" x="0" y="0" viewBox="0 0 512 512" style="enable-background:new 0 0 512 512" xml:space="preserve" class=""><g><path fill="#98db7c" d="M327.165 154.814c17.287-17.287 26.835-39.362 28.701-61.956a8.193 8.193 0 0 0-8.87-8.87c-22.594 1.865-44.669 11.414-61.956 28.701-19.63 19.63-29.282 45.433-29.036 71.16 25.728.246 51.531-9.405 71.161-29.035z" opacity="1" data-original="#98db7c" class=""></path><path fill="#98db7c" d="M226.959 112.689c-17.287-17.287-39.362-26.835-61.956-28.7a8.193 8.193 0 0 0-8.87 8.87c1.865 22.594 11.414 44.669 28.701 61.956 19.63 19.63 45.433 29.282 71.16 29.036.246-25.729-9.405-51.532-29.035-71.162z" opacity="1" data-original="#98db7c" class=""></path><path fill="#77cc7d" d="M114.908 142.576a57.254 57.254 0 0 0-31.456-16.101c-5.231-.845-9.922 3.847-9.077 9.077a57.25 57.25 0 0 0 16.101 31.456c11.385 11.385 26.351 16.983 41.273 16.841.143-14.921-5.455-29.887-16.841-41.273z" opacity="1" data-original="#77cc7d" class=""></path><g fill="#98db7c"><path d="M397.081 142.576a57.254 57.254 0 0 1 31.456-16.101c5.231-.845 9.922 3.847 9.077 9.077a57.25 57.25 0 0 1-16.101 31.456c-11.385 11.385-26.351 16.983-41.273 16.841-.143-14.921 5.455-29.887 16.841-41.273zM272.033 59.605c0-10.636-3.481-20.496-9.415-28.634a8.15 8.15 0 0 0-13.234 0c-5.935 8.138-9.415 17.998-9.415 28.634s3.48 20.496 9.415 28.634a8.15 8.15 0 0 0 13.234 0c5.934-8.138 9.415-17.998 9.415-28.634zM184.835 357.187c-17.287 17.287-26.835 39.362-28.7 61.956a8.193 8.193 0 0 0 8.87 8.87c22.594-1.865 44.669-11.414 61.956-28.701 19.63-19.63 29.282-45.433 29.036-71.16-25.729-.247-51.532 9.404-71.162 29.035z" fill="#98db7c" opacity="1" data-original="#98db7c" class=""></path><path d="M285.041 399.311c17.287 17.287 39.362 26.835 61.956 28.7a8.193 8.193 0 0 0 8.87-8.87c-1.865-22.594-11.414-44.669-28.701-61.956-19.63-19.63-45.433-29.282-71.16-29.036-.246 25.729 9.405 51.532 29.035 71.162z" fill="#98db7c" opacity="1" data-original="#98db7c" class=""></path></g><path fill="#77cc7d" d="M114.919 369.424a57.254 57.254 0 0 1-31.456 16.101c-5.231.845-9.922-3.847-9.077-9.077a57.25 57.25 0 0 1 16.101-31.456c11.385-11.385 26.351-16.983 41.273-16.841.143 14.921-5.455 29.887-16.841 41.273z" opacity="1" data-original="#77cc7d" class=""></path><path fill="#98db7c" d="M397.092 369.424a57.254 57.254 0 0 0 31.456 16.101c5.231.845 9.922-3.847 9.077-9.077a57.25 57.25 0 0 0-16.101-31.456c-11.385-11.385-26.351-16.983-41.273-16.841-.143 14.921 5.455 29.887 16.841 41.273zM239.967 452.395c0 10.636 3.481 20.496 9.415 28.634a8.15 8.15 0 0 0 13.234 0c5.935-8.138 9.415-17.998 9.415-28.634s-3.48-20.496-9.415-28.634a8.15 8.15 0 0 0-13.234 0c-5.934 8.139-9.415 17.999-9.415 28.634z" opacity="1" data-original="#98db7c" class=""></path><path d="M290.998 219.935a9.073 9.073 0 0 0-8.422-5.644h-.01a9.075 9.075 0 0 0-8.42 5.662l-.065.166-26.614 69.877a7.5 7.5 0 0 0 14.018 5.34l4.788-12.572h32.408l4.737 12.551a7.503 7.503 0 0 0 7.018 4.854 7.499 7.499 0 0 0 7.015-10.15l-26.372-69.88a6.184 6.184 0 0 0-.081-.204zm-19.012 47.829 10.565-27.739 10.469 27.739zM334.461 214.764a7.501 7.501 0 0 0-5.268 7.16v70.742c0 4.143 3.357 7.5 7.5 7.5s7.5-3.357 7.5-7.5v-46.684l34.162 49.469c2.258 3.262 6.004 4.652 9.54 3.552 3.622-1.132 5.963-4.556 5.963-8.797l-.662-68.487a7.5 7.5 0 0 0-7.498-7.428h-.074a7.5 7.5 0 0 0-7.428 7.572l.461 47.628-35.792-51.829a7.503 7.503 0 0 0-8.404-2.898zM410.147 221.791v70.875c0 4.143 3.357 7.5 7.5 7.5s7.5-3.357 7.5-7.5v-70.875c0-4.143-3.357-7.5-7.5-7.5s-7.5 3.358-7.5 7.5zM205.583 229.291c5.6 0 10.999 1.648 15.614 4.767a7.499 7.499 0 0 0 10.413-2.015 7.5 7.5 0 0 0-2.015-10.413c-7.105-4.802-15.408-7.339-24.013-7.339-23.676 0-42.938 19.262-42.938 42.938s19.262 42.938 42.938 42.938c22.428 0 38.092-17.656 38.092-42.938 0-4.143-3.357-7.5-7.5-7.5h-21.202c-4.143 0-7.5 3.357-7.5 7.5s3.357 7.5 7.5 7.5h13.006c-2.015 10.587-8.606 20.438-22.396 20.438-15.405 0-27.938-12.533-27.938-27.938s12.534-27.938 27.939-27.938zM509.32 276.917a7.498 7.498 0 0 0-10.566.925 21.222 21.222 0 0 1-2.118 2.188c-3.827 3.408-8.692 5.137-14.461 5.137-15.405 0-27.938-12.533-27.938-27.938s12.532-27.938 27.938-27.938a27.78 27.78 0 0 1 15.615 4.768 7.5 7.5 0 0 0 8.396-12.43c-7.105-4.801-15.409-7.338-24.012-7.338-23.676 0-42.938 19.262-42.938 42.938s19.262 42.938 42.938 42.938c9.424 0 17.874-3.09 24.438-8.936a36 36 0 0 0 3.633-3.748 7.498 7.498 0 0 0-.925-10.566zM152.805 240.211c0-14.292-12.095-25.92-26.962-25.92h-18.834v.001l-.022-.001a7.499 7.499 0 0 0-7.5 7.5v70.875c0 4.143 3.357 7.5 7.5 7.5s7.5-3.357 7.5-7.5v-23.664l25.188 28.619a7.48 7.48 0 0 0 5.633 2.545 7.5 7.5 0 0 0 5.627-12.455l-19.492-22.146c12.188-2.486 21.362-12.908 21.362-25.354zm-26.962 10.92c-2.601 0-7.235.02-11.246.04-.021-3.932-.053-17.768-.064-21.88h11.311c6.484 0 11.962 5.001 11.962 10.92s-5.479 10.92-11.963 10.92zM85.875 257.229c0-23.676-19.262-42.938-42.938-42.938S0 233.553 0 257.229s19.262 42.938 42.938 42.938 42.937-19.263 42.937-42.938zm-70.875 0c0-15.404 12.533-27.938 27.938-27.938s27.938 12.533 27.938 27.938-12.533 27.938-27.938 27.938S15 272.633 15 257.229zM47.581 191.355h416.838c4.143 0 7.5-3.357 7.5-7.5s-3.357-7.5-7.5-7.5h-42.042a66.166 66.166 0 0 0 4.439-4.042c12.444-12.445 19.205-29.012 19.037-46.648a7.5 7.5 0 0 0-7.429-7.429c-17.652-.152-34.204 6.592-46.648 19.037v.001c-10.646 10.646-17.115 24.313-18.662 39.081h-61.447a107.387 107.387 0 0 0 20.791-16.237c20.416-20.417 31.508-47.598 31.231-76.535a7.5 7.5 0 0 0-7.429-7.429c-28.915-.236-56.118 10.815-76.535 31.231a108.563 108.563 0 0 0-5.354 5.76 7.5 7.5 0 0 0 .771 10.578 7.496 7.496 0 0 0 10.578-.771 94.218 94.218 0 0 1 4.612-4.959c15.73-15.731 36.136-25.021 58.119-26.602-1.582 21.981-10.871 42.39-26.601 58.119-12.742 12.742-28.547 21.247-45.776 24.865l41.334-41.334a7.5 7.5 0 0 0-10.607-10.607l-44.483 44.484c-3.334-22.468-13.699-43.172-30.058-59.531v-.001c-20.169-20.168-46.935-31.236-75.479-31.236-.351 0-.706.002-1.057.005a7.502 7.502 0 0 0-7.429 7.428c-.277 28.938 10.814 56.118 31.231 76.536a107.374 107.374 0 0 0 20.789 16.237H138.87c-1.547-14.769-8.017-28.435-18.663-39.082v.001c-12.293-12.294-28.607-19.041-46.004-19.041-.214 0-.43.001-.644.003a7.502 7.502 0 0 0-7.429 7.428c-.169 17.636 6.591 34.202 19.037 46.649a66.166 66.166 0 0 0 4.439 4.042H47.581c-4.143 0-7.5 3.357-7.5 7.5s3.357 7.499 7.5 7.499zm354.803-43.476c7.672-7.672 17.382-12.535 27.924-14.098-1.562 10.541-6.427 20.253-14.099 27.924-7.672 7.673-17.381 12.536-27.923 14.099 1.563-10.541 6.427-20.253 14.098-27.925zM163.536 91.391c21.981 1.582 42.39 10.871 58.119 26.601 12.741 12.742 21.253 28.554 24.87 45.783l-41.335-41.336a7.5 7.5 0 0 0-10.607 10.607l41.335 41.335c-17.228-3.617-33.039-12.129-45.78-24.871-15.732-15.731-25.021-36.139-26.602-58.119zm-81.854 42.39c10.541 1.562 20.252 6.427 27.923 14.098v.001c7.672 7.671 12.535 17.383 14.099 27.924-10.541-1.563-20.252-6.427-27.924-14.098-7.673-7.673-12.536-17.384-14.098-27.925z" fill="#c19f5f" opacity="1" data-original="#000000" class=""></path><path d="M250.898 101.175a7.475 7.475 0 0 0 5.102 2.003 7.487 7.487 0 0 0 5.102-2.002c11.886-11.03 18.432-25.794 18.432-41.571s-6.546-30.54-18.432-41.57a7.5 7.5 0 0 0-10.203.001c-11.886 11.03-18.431 25.793-18.431 41.569 0 15.777 6.545 30.54 18.43 41.57zM256 34.631c5.545 7.246 8.533 15.895 8.533 24.974S261.545 77.332 256 84.579c-5.544-7.247-8.532-15.896-8.532-24.975s2.988-17.726 8.532-24.973zM464.419 320.646H47.581c-4.143 0-7.5 3.357-7.5 7.5s3.357 7.5 7.5 7.5h42.045a65.958 65.958 0 0 0-4.443 4.042c-12.444 12.445-19.205 29.012-19.037 46.648a7.5 7.5 0 0 0 7.429 7.429c.215.002.429.003.644.003 17.395 0 33.712-6.747 46.005-19.04v-.001c10.646-10.646 17.115-24.313 18.662-39.081h61.447a107.387 107.387 0 0 0-20.791 16.237c-20.416 20.417-31.508 47.598-31.231 76.535a7.5 7.5 0 0 0 7.429 7.429c.353.003.704.005 1.057.005 28.542 0 55.311-11.069 75.479-31.236a108.794 108.794 0 0 0 6.878-7.562 7.502 7.502 0 0 0-11.563-9.557 93.214 93.214 0 0 1-5.923 6.511c-15.73 15.731-36.136 25.021-58.119 26.602 1.582-21.981 10.871-42.39 26.601-58.119 12.745-12.743 28.545-21.251 45.779-24.868l-41.337 41.337a7.5 7.5 0 1 0 10.608 10.607l44.483-44.484c3.334 22.468 13.699 43.172 30.058 59.531v.001c20.169 20.168 46.935 31.236 75.479 31.236.351 0 .706-.002 1.057-.005a7.502 7.502 0 0 0 7.429-7.428c.277-28.938-10.814-56.118-31.231-76.536a107.374 107.374 0 0 0-20.789-16.237h61.445c1.547 14.769 8.017 28.435 18.663 39.082v-.001c12.293 12.294 28.607 19.041 46.004 19.041.214 0 .43-.001.644-.003a7.502 7.502 0 0 0 7.429-7.428c.169-17.636-6.591-34.202-19.037-46.649a65.958 65.958 0 0 0-4.443-4.042h42.035a7.499 7.499 0 1 0-.007-14.999zm-354.803 43.475c-7.672 7.672-17.382 12.535-27.924 14.098 1.562-10.541 6.427-20.253 14.099-27.924 7.672-7.673 17.381-12.536 27.923-14.099-1.563 10.541-6.427 20.253-14.098 27.925zm238.848 56.489c-21.981-1.582-42.39-10.871-58.119-26.602v.001c-12.741-12.742-21.253-28.554-24.87-45.783l41.335 41.336a7.5 7.5 0 0 0 10.607-10.607l-41.335-41.335c17.228 3.617 33.039 12.129 45.78 24.871 15.732 15.73 25.021 36.138 26.602 58.119zm81.854-42.391c-10.541-1.562-20.252-6.427-27.923-14.098v-.001c-7.672-7.671-12.535-17.383-14.099-27.924 10.541 1.563 20.252 6.427 27.924 14.098 7.673 7.673 12.536 17.384 14.098 27.925z" fill="#c19f5f" opacity="1" data-original="#000000" class=""></path><path d="M261.102 410.825a7.5 7.5 0 0 0-10.203-.001c-11.886 11.03-18.432 25.794-18.432 41.571s6.546 30.54 18.432 41.57c1.438 1.335 3.27 2.002 5.102 2.002s3.663-.668 5.102-2.003c11.886-11.03 18.431-25.793 18.431-41.569-.002-15.777-6.547-30.539-18.432-41.57zM256 477.369c-5.545-7.246-8.533-15.895-8.533-24.974s2.988-17.728 8.533-24.975c5.544 7.247 8.532 15.896 8.532 24.975s-2.988 17.727-8.532 24.974z" fill="#c19f5f" opacity="1" data-original="#000000" class=""></path></g></svg>